<?xml version="1.0" encoding="utf-8"?>
<!-- Generator: Adobe Illustrator 22.0.1, SVG Export Plug-In . SVG Version: 6.00 Build 0)  -->
<svg version="1.1" id="Layer_1" xmlns="http://www.w3.org/2000/svg" xmlns:xlink="http://www.w3.org/1999/xlink" x="0px" y="0px"
	 viewBox="0 0 3840 854" style="enable-background:new 0 0 3840 854;" xml:space="preserve">
<style type="text/css">
	.st0{fill:#172B4D;}
	.st1{opacity:0.5;}
	.st2{clip-path:url(#SVGID_4_);}
	.st3{fill:none;stroke:#B3F5FF;stroke-width:5.11;stroke-miterlimit:10;}
	.st4{fill:#B3F5FF;stroke:#B3F5FF;stroke-width:5.11;stroke-miterlimit:10;}
	.st5{fill:#00B8D9;}
	.st6{fill:none;stroke:#B3F5FF;stroke-width:7.75;stroke-linecap:round;stroke-linejoin:round;}
	.st7{fill:none;stroke:#B3F5FF;stroke-width:7.75;stroke-linejoin:round;}
</style>
<title>Artboard 1 copy 6</title>
<g id="BG">
	<rect x="-33.1" y="-7.3" class="st0" width="3924.1" height="872.7"/>
</g>
<g id="Layer_3">
	<g>
		<defs>
			<rect id="SVGID_1_" x="4221.3" y="-1100.3" width="3840" height="855.1"/>
		</defs>
		<clipPath id="SVGID_2_">
			<use xlink:href="#SVGID_1_"  style="overflow:visible;"/>
		</clipPath>
	</g>
	<g class="st1">
		<g>
			<defs>
				<rect id="SVGID_3_" x="-33.1" y="-7.9" width="3924.1" height="873.8"/>
			</defs>
			<clipPath id="SVGID_4_">
				<use xlink:href="#SVGID_3_"  style="overflow:visible;"/>
			</clipPath>
			<g class="st2">
				<line class="st3" x1="1388" y1="408.1" x2="1467.4" y2="350.5"/>
				<circle class="st4" cx="1467.4" cy="350.5" r="18.1"/>
				<circle class="st4" cx="1178.3" cy="267.1" r="18.1"/>
				<circle class="st4" cx="1089.3" cy="412" r="18.1"/>
				<line class="st3" x1="1178.3" y1="267.1" x2="1204.9" y2="386.2"/>
				<line class="st3" x1="1204.9" y1="386.2" x2="1089" y2="412.1"/>
				<line class="st3" x1="1298.7" y1="415.4" x2="1204.9" y2="386.2"/>
				<circle class="st4" cx="1204.9" cy="386.2" r="18.1"/>
				<line class="st3" x1="3383.3" y1="570.5" x2="3303.8" y2="628.1"/>
				<circle class="st4" cx="3303.8" cy="628.1" r="18.1"/>
				<circle class="st4" cx="3534.1" cy="749.5" r="18.1"/>
				<circle class="st4" cx="3695.8" cy="697.2" r="18.1"/>
				<line class="st3" x1="3534.1" y1="749.5" x2="3591.2" y2="641.7"/>
				<line class="st3" x1="3591.2" y1="641.7" x2="3696.1" y2="697.3"/>
				<line class="st3" x1="3538.9" y1="558.6" x2="3591.2" y2="641.7"/>
				<circle class="st4" cx="3591.2" cy="641.7" r="18.1"/>
				<circle class="st4" cx="-0.5" cy="675.4" r="18.1"/>
				<line class="st3" x1="-0.5" y1="675.4" x2="26.1" y2="794.5"/>
				<line class="st3" x1="26.1" y1="794.5" x2="-89.8" y2="820.4"/>
				<line class="st3" x1="119.9" y1="823.7" x2="26.1" y2="794.5"/>
				<circle class="st4" cx="26.1" cy="794.5" r="18.1"/>
				<path class="st5" d="M90.6,323.2h157.2c3.8,0,6.8,3.1,6.8,6.8v157.2c0,3.8-3.1,6.8-6.8,6.8H90.6c-3.8,0-6.8-3.1-6.8-6.8V330
					C83.8,326.3,86.9,323.2,90.6,323.2z"/>
				<path class="st5" d="M90.6,516.2h157.2c3.8,0,6.8,3.1,6.8,6.8v157.2c0,3.8-3.1,6.8-6.8,6.8H90.6c-3.8,0-6.8-3.1-6.8-6.8V523
					C83.8,519.2,86.9,516.2,90.6,516.2z"/>
				<path class="st5" d="M90.6,709.1h157.2c3.8,0,6.8,3.1,6.8,6.8v157.2c0,3.8-3.1,6.8-6.8,6.8H90.6c-3.8,0-6.8-3.1-6.8-6.8V715.9
					C83.8,712.2,86.9,709.1,90.6,709.1z"/>
				<path class="st5" d="M283.6,516.2h157.2c3.8,0,6.8,3.1,6.8,6.8v157.2c0,3.8-3.1,6.8-6.8,6.8H283.6c-3.8,0-6.8-3.1-6.8-6.8V523
					C276.8,519.2,279.8,516.2,283.6,516.2z"/>
				<path class="st5" d="M283.6,709.1h157.2c3.8,0,6.8,3.1,6.8,6.8v157.2c0,3.8-3.1,6.8-6.8,6.8H283.6c-3.8,0-6.8-3.1-6.8-6.8V715.9
					C276.8,712.2,279.8,709.1,283.6,709.1z"/>
				<path class="st5" d="M476.5,709.1h157.2c3.8,0,6.8,3.1,6.8,6.8v157.2c0,3.8-3.1,6.8-6.8,6.8H476.5c-3.8,0-6.8-3.1-6.8-6.8V715.9
					C469.7,712.2,472.8,709.1,476.5,709.1z"/>
				<path class="st5" d="M669.5,709.1h157.2c3.8,0,6.8,3.1,6.8,6.8v157.2c0,3.8-3.1,6.8-6.8,6.8H669.5c-3.8,0-6.8-3.1-6.8-6.8V715.9
					C662.7,712.2,665.7,709.1,669.5,709.1z"/>
				<path class="st5" d="M862.5,709.1h157.2c3.8,0,6.8,3.1,6.8,6.8v157.2c0,3.8-3.1,6.8-6.8,6.8H862.5c-3.8,0-6.8-3.1-6.8-6.8V715.9
					C855.6,712.2,858.7,709.1,862.5,709.1z"/>
				<path class="st5" d="M1055.4,516.2h157.2c3.8,0,6.8,3.1,6.8,6.8v157.2c0,3.8-3.1,6.8-6.8,6.8h-157.2c-3.8,0-6.8-3.1-6.8-6.8V523
					C1048.6,519.2,1051.6,516.2,1055.4,516.2z"/>
				<path class="st5" d="M1055.4,709.1h157.2c3.8,0,6.8,3.1,6.8,6.8v157.2c0,3.8-3.1,6.8-6.8,6.8h-157.2c-3.8,0-6.8-3.1-6.8-6.8
					V715.9C1048.6,712.2,1051.6,709.1,1055.4,709.1z"/>
				<path class="st5" d="M1248.4,323.2h157.2c3.8,0,6.8,3.1,6.8,6.8v157.2c0,3.8-3.1,6.8-6.8,6.8h-157.2c-3.8,0-6.8-3.1-6.8-6.8V330
					C1241.6,326.3,1244.6,323.2,1248.4,323.2z"/>
				<path class="st5" d="M794.3,74.4h157.2c3.8,0,6.8,3.1,6.8,6.8v157.2c0,3.8-3.1,6.8-6.8,6.8H794.3c-3.8,0-6.8-3.1-6.8-6.8V81.2
					C787.5,77.5,790.6,74.4,794.3,74.4z"/>
				<path class="st5" d="M1248.4,516.2h157.2c3.8,0,6.8,3.1,6.8,6.8v157.2c0,3.8-3.1,6.8-6.8,6.8h-157.2c-3.8,0-6.8-3.1-6.8-6.8V523
					C1241.6,519.2,1244.6,516.2,1248.4,516.2z"/>
				<path class="st5" d="M2389.9,606.6h157.2c3.8,0,6.8,3.1,6.8,6.8v157.2c0,3.8-3.1,6.8-6.8,6.8h-157.2c-3.8,0-6.8-3.1-6.8-6.8
					V613.4C2383.1,609.7,2386.1,606.6,2389.9,606.6z"/>
				<path class="st5" d="M2389.9,412.7h157.2c3.8,0,6.8,3.1,6.8,6.8v157.2c0,3.8-3.1,6.8-6.8,6.8h-157.2c-3.8,0-6.8-3.1-6.8-6.8
					V419.5C2383.1,415.7,2386.1,412.7,2389.9,412.7z"/>
				<path class="st5" d="M3079.6-166.2h157.2c3.8,0,6.8,3.1,6.8,6.8V-2.1c0,3.8-3.1,6.8-6.8,6.8h-157.2c-3.8,0-6.8-3.1-6.8-6.8
					v-157.2C3072.7-163.1,3075.8-166.2,3079.6-166.2z"/>
				<path class="st5" d="M3079.6,26.8h157.2c3.8,0,6.8,3.1,6.8,6.8v157.2c0,3.8-3.1,6.8-6.8,6.8h-157.2c-3.8,0-6.8-3.1-6.8-6.8V33.6
					C3072.7,29.8,3075.8,26.8,3079.6,26.8z"/>
				<path class="st5" d="M3079.6,219.7h157.2c3.8,0,6.8,3.1,6.8,6.8v157.2c0,3.8-3.1,6.8-6.8,6.8h-157.2c-3.8,0-6.8-3.1-6.8-6.8
					V226.6C3072.7,222.8,3075.8,219.7,3079.6,219.7z"/>
				<path class="st5" d="M3079.6,412.7h157.2c3.8,0,6.8,3.1,6.8,6.8v157.2c0,3.8-3.1,6.8-6.8,6.8h-157.2c-3.8,0-6.8-3.1-6.8-6.8
					V419.5C3072.7,415.7,3075.8,412.7,3079.6,412.7z"/>
				<path class="st5" d="M2886.6,412.7h157.2c3.8,0,6.8,3.1,6.8,6.8v157.2c0,3.8-3.1,6.8-6.8,6.8h-157.2c-3.8,0-6.8-3.1-6.8-6.8
					V419.5C2879.8,415.7,2882.8,412.7,2886.6,412.7z"/>
				<path class="st5" d="M2886.6,606.6h157.2c3.8,0,6.8,3.1,6.8,6.8v157.2c0,3.8-3.1,6.8-6.8,6.8h-157.2c-3.8,0-6.8-3.1-6.8-6.8
					V613.4C2879.8,609.7,2882.8,606.6,2886.6,606.6z"/>
				<path class="st5" d="M3272.5,26.8h157.2c3.8,0,6.8,3.1,6.8,6.8v157.2c0,3.8-3.1,6.8-6.8,6.8h-157.2c-3.8,0-6.8-3.1-6.8-6.8V33.6
					C3265.7,29.8,3268.7,26.8,3272.5,26.8z"/>
				<path class="st5" d="M3272.5,219.7h157.2c3.8,0,6.8,3.1,6.8,6.8v157.2c0,3.8-3.1,6.8-6.8,6.8h-157.2c-3.8,0-6.8-3.1-6.8-6.8
					V226.6C3265.7,222.8,3268.7,219.7,3272.5,219.7z"/>
				<path class="st5" d="M3272.5,412.7h157.2c3.8,0,6.8,3.1,6.8,6.8v157.2c0,3.8-3.1,6.8-6.8,6.8h-157.2c-3.8,0-6.8-3.1-6.8-6.8
					V419.5C3265.7,415.7,3268.7,412.7,3272.5,412.7z"/>
				<path class="st5" d="M3465.5,219.7h157.2c3.8,0,6.8,3.1,6.8,6.8v157.2c0,3.8-3.1,6.8-6.8,6.8h-157.2c-3.8,0-6.8-3.1-6.8-6.8
					V226.6C3458.6,222.8,3461.7,219.7,3465.5,219.7z"/>
				<path class="st5" d="M3465.5,412.7h157.2c3.8,0,6.8,3.1,6.8,6.8v157.2c0,3.8-3.1,6.8-6.8,6.8h-157.2c-3.8,0-6.8-3.1-6.8-6.8
					V419.5C3458.6,415.7,3461.7,412.7,3465.5,412.7z"/>
				<path class="st5" d="M3658.4,219.7h157.2c3.8,0,6.8,3.1,6.8,6.8v157.2c0,3.8-3.1,6.8-6.8,6.8h-157.2c-3.8,0-6.8-3.1-6.8-6.8
					V226.6C3651.6,222.8,3654.7,219.7,3658.4,219.7z"/>
				<path class="st5" d="M3658.4,412.7h157.2c3.8,0,6.8,3.1,6.8,6.8v157.2c0,3.8-3.1,6.8-6.8,6.8h-157.2c-3.8,0-6.8-3.1-6.8-6.8
					V419.5C3651.6,415.7,3654.7,412.7,3658.4,412.7z"/>
				<polyline class="st6" points="3731.2,351.8 3731.2,302.5 3775.9,257.9 				"/>
				<line class="st6" x1="3719.9" y1="290.4" x2="3697" y2="267.5"/>
				<line class="st6" x1="3759.2" y1="257.9" x2="3775.9" y2="257.9"/>
				<line class="st6" x1="3775.9" y1="257.9" x2="3775.9" y2="277.2"/>
				<path class="st6" d="M650.8,61.7l0.3-69.6c0-4.9-3.9-9-8.9-9c0,0,0,0,0,0l0,0c-4.9,0-9,3.9-9,8.9c0,0,0,0,0,0l-0.2,39.6"/>
				<path class="st6" d="M666.9,31.8l0.2-40.4c0.1-13.6-10.9-24.7-24.5-24.8c0,0,0,0,0,0l0,0c-13.6-0.1-24.7,10.9-24.8,24.5
					c0,0,0,0,0,0l-0.3,70.5"/>
				<path class="st6" d="M633.1,31.6l-0.2,33.2c0,9.3,7.5,17,16.8,17c0,0,0,0,0,0l0,0c9.3,0,17-7.5,17-16.8l0.2-33.2"/>
				<polygon class="st7" points="3711.4,120.8 3695.2,139.9 3662.7,139.9 3695.2,101.8 				"/>
				<polygon class="st7" points="3800,139.9 3695.2,139.9 3711.4,120.8 3747.6,78.4 				"/>
				<circle class="st7" cx="3695.2" cy="69.6" r="10"/>
				<path class="st7" d="M803.7,795.8c0,0-23.7,34-52.9,34s-53-34-53-34s23.7-34,53-34S803.7,795.8,803.7,795.8z"/>
				<circle class="st7" cx="750.7" cy="795.8" r="19.3"/>
				<path class="st6" d="M88.1,428.2L88.1,428.2c-7.9-7.9-7.9-20.8,0-28.7l16.4-16.5c7.9-7.9,20.8-7.9,28.7,0c0,0,0,0,0,0l0,0
					c7.9,7.9,7.9,20.8,0,28.7c0,0,0,0,0,0l-16.4,16.4"/>
				<path class="st6" d="M98,418.3L98,418.3c7.9,7.9,7.9,20.8,0,28.7l-16.4,16.5c-7.9,7.9-20.8,7.9-28.7,0l0,0
					c-7.9-7.9-7.9-20.8,0-28.7c0,0,0,0,0,0l16.4-16.4"/>
				<line class="st6" x1="3349" y1="59.9" x2="3369.7" y2="80.6"/>
				<line class="st6" x1="3349" y1="59.9" x2="3328.3" y2="80.6"/>
				<polyline class="st6" points="3362.4,100 3380.1,100 3380.1,162.2 3317.9,162.2 3317.9,100 3335.7,100 				"/>
				<line class="st6" x1="3349" y1="131.1" x2="3349" y2="59.9"/>
				<polygon class="st7" points="3141.5,557 3099.1,514.6 3156.8,456.9 3204.7,451.4 3199.2,499.3 				"/>
				<circle class="st7" cx="3178.9" cy="477.2" r="7.6"/>
				<rect x="1286.7" y="566.6" class="st7" width="81.2" height="81.2"/>
				<line class="st7" x1="1286.7" y1="589.2" x2="1367.9" y2="589.2"/>
				<line class="st6" x1="1306.3" y1="556.1" x2="1306.3" y2="577.1"/>
				<line class="st6" x1="1348.3" y1="556.1" x2="1348.3" y2="577.1"/>
				<line class="st6" x1="1306.3" y1="589.2" x2="1306.3" y2="647.8"/>
				<line class="st6" x1="1327.3" y1="589.2" x2="1327.3" y2="647.8"/>
				<line class="st6" x1="1348.3" y1="589.2" x2="1348.3" y2="647.8"/>
				<line class="st7" x1="1286.7" y1="618.5" x2="1367.9" y2="618.5"/>
				<polygon class="st7" points="3370.8,694.3 3387.7,728.6 3425.6,734.1 3398.2,760.8 3404.6,798.5 3370.8,780.7 3336.9,798.5 
					3343.4,760.8 3316,734.1 3353.9,728.6 				"/>
			</g>
		</g>
	</g>
</g>
</svg>
