<svg xmlns="http://www.w3.org/2000/svg" xmlns:xlink="http://www.w3.org/1999/xlink" viewBox="0 0 4000 1000"><defs><style>.cls-1,.cls-11,.cls-12,.cls-13,.cls-9{fill:none;}.cls-2{isolation:isolate;}.cls-3{clip-path:url(#clip-path);}.cls-4{clip-path:url(#clip-path-2);}.cls-5{mix-blend-mode:soft-light;}.cls-6{clip-path:url(#clip-path-3);}.cls-7{fill:url(#linear-gradient);}.cls-8{opacity:0.62;fill:url(#linear-gradient-2);}.cls-11,.cls-12,.cls-13,.cls-9{stroke:#2684ff;stroke-linecap:round;stroke-miterlimit:10;}.cls-9{stroke-width:7.69px;}.cls-10,.cls-12{opacity:0.5;}.cls-11,.cls-12{stroke-width:5.8px;}.cls-13{stroke-width:10.66px;}</style><clipPath id="clip-path"><rect class="cls-1" x="2.32" y="-3.89" width="3997.68" height="1003.89"/></clipPath><clipPath id="clip-path-2"><rect class="cls-1" x="2.32" y="-3.89" width="3997.68" height="1332.56"/></clipPath><clipPath id="clip-path-3"><polygon class="cls-1" points="4021.32 1991.69 -21.67 1991.52 -21.67 -26.51 4021.32 -26.51 4021.32 1991.69"/></clipPath><linearGradient id="linear-gradient" x1="1999.83" y1="1991.69" x2="1999.83" y2="-1746.77" gradientUnits="userSpaceOnUse"><stop offset="0.42" stop-color="#172b4d"/><stop offset="1" stop-color="#42526e"/></linearGradient><linearGradient id="linear-gradient-2" x1="-118.18" y1="1926.66" x2="-118.18" y2="-615.49" gradientTransform="matrix(-1, -0.05, -0.05, 1, 1894.02, 62.76)" gradientUnits="userSpaceOnUse"><stop offset="0.13" stop-color="#172b4d"/><stop offset="0.39" stop-color="#1f3253"/><stop offset="0.79" stop-color="#344563"/><stop offset="1" stop-color="#42526e"/></linearGradient></defs><title>Artboard 1</title><g class="cls-2"><g id="Layer_10" data-name="Layer 10"><g class="cls-3"><g class="cls-4"><g class="cls-5"><g class="cls-6"><polygon class="cls-7" points="4021.32 1991.69 -21.67 1991.52 -21.67 -26.51 4021.32 -26.51 4021.32 1991.69"/><path class="cls-8" d="M4097.89,490.58c-71-59.21-242.52-158-917.26-144.77-933.2,18.24-1230.14,219.35-1895.95,246.87C943.29,606.79,449,577.57-178.79,368.86c-82.3,151.68-121.48,323-24.34,483.82,457.83,758,3720.79,914.82,4306.41,215.67C4235,911.05,4284.86,646.43,4097.89,490.58Z"/></g></g><circle class="cls-9" cx="156.95" cy="437.3" r="7.06"/><path class="cls-9" d="M157,437.3c0-34.63,46.5-6.38,46.5-51.48"/><line class="cls-9" x1="156.95" y1="437.3" x2="156.95" y2="366.07"/><circle class="cls-9" cx="156.95" cy="366.07" r="7.06"/><circle class="cls-9" cx="203.45" cy="385.82" r="7.06"/><line class="cls-9" x1="3280.9" y1="660.24" x2="3306.08" y2="685.42"/><line class="cls-9" x1="3306.08" y1="635.06" x2="3280.9" y2="660.24"/><line class="cls-9" x1="3368.9" y1="660.24" x2="3343.72" y2="635.06"/><line class="cls-9" x1="3343.72" y1="685.42" x2="3368.9" y2="660.24"/><line class="cls-9" x1="3885.52" y1="49.65" x2="3937.59" y2="98.25"/><line class="cls-9" x1="3935.85" y1="47.91" x2="3887.26" y2="99.98"/><line class="cls-9" x1="3785.71" y1="706.45" x2="3837.78" y2="755.05"/><line class="cls-9" x1="3836.05" y1="704.71" x2="3787.45" y2="756.78"/><line class="cls-9" x1="1378.74" y1="82.48" x2="1353.56" y2="57.3"/><line class="cls-9" x1="1353.56" y1="107.66" x2="1378.74" y2="82.48"/><line class="cls-9" x1="1416.65" y1="107.66" x2="1383.93" y2="107.66"/><line class="cls-9" x1="368.74" y1="894.77" x2="439.96" y2="894.77"/><line class="cls-9" x1="404.35" y1="859.16" x2="404.35" y2="930.38"/><circle class="cls-9" cx="1213.44" cy="311.43" r="7.06"/><path class="cls-9" d="M1213.44,311.43c0-34.63,46.5-6.38,46.5-51.48"/><line class="cls-9" x1="1213.44" y1="311.43" x2="1213.44" y2="240.21"/><circle class="cls-9" cx="1213.44" cy="240.21" r="7.06"/><circle class="cls-9" cx="1259.94" cy="259.95" r="7.06"/><line class="cls-9" x1="742.43" y1="49.65" x2="794.5" y2="98.25"/><line class="cls-9" x1="792.76" y1="47.91" x2="744.16" y2="99.98"/><line class="cls-9" x1="3721.64" y1="382.42" x2="3746.82" y2="407.6"/><line class="cls-9" x1="3746.82" y1="357.24" x2="3721.64" y2="382.42"/><line class="cls-9" x1="3809.64" y1="382.42" x2="3784.46" y2="357.24"/><line class="cls-9" x1="3784.46" y1="407.6" x2="3809.64" y2="382.42"/><circle class="cls-9" cx="2570.03" cy="103.48" r="7.06"/><path class="cls-9" d="M2570,103.48c0-34.63,46.5-6.38,46.5-51.47"/><line class="cls-9" x1="2570.03" y1="103.48" x2="2570.03" y2="32.26"/><circle class="cls-9" cx="2570.03" cy="32.26" r="7.06"/><circle class="cls-9" cx="2616.53" cy="52.01" r="7.06"/><line class="cls-9" x1="708.1" y1="778.62" x2="682.91" y2="803.8"/><line class="cls-9" x1="733.28" y1="803.8" x2="708.1" y2="778.62"/><line class="cls-9" x1="747.45" y1="515.72" x2="818.68" y2="515.72"/><line class="cls-9" x1="783.06" y1="480.11" x2="783.06" y2="551.33"/><line class="cls-9" x1="3123.4" y1="289.33" x2="3098.22" y2="264.15"/><line class="cls-9" x1="3098.22" y1="314.51" x2="3123.4" y2="289.33"/><line class="cls-9" x1="3161.31" y1="314.51" x2="3128.58" y2="314.51"/><line class="cls-9" x1="3289.9" y1="864.38" x2="3264.72" y2="889.57"/><line class="cls-9" x1="3315.09" y1="889.57" x2="3289.9" y2="864.38"/><g class="cls-10"><path class="cls-11" d="M1036,669.56c8.58,2.61,17.12-.46,23-6.38a24.77,24.77,0,0,0,0-35.4,23.57,23.57,0,0,0-22.93-6.36h0c-11.41,3.46-20.67,13.29-28.53,21.78-.69.75-1.39,1.51-2.06,2.29s-1.36,1.53-2,2.28h0c-7.86,8.49-17.12,18.32-28.53,21.78h0a23.27,23.27,0,0,1-22.93-6.36,24.77,24.77,0,0,1,0-35.4c5.83-5.92,14.37-9,23-6.38"/></g><path class="cls-12" d="M974.83,621.43c11.41,3.46,20.67,13.29,28.53,21.78.69.75,1.38,1.51,2,2.29l2.06,2.28c7.86,8.49,17.12,18.32,28.53,21.78"/><g class="cls-10"><line class="cls-9" x1="2173.73" y1="127.59" x2="2249.96" y2="198.74"/><line class="cls-9" x1="2247.42" y1="125.05" x2="2176.27" y2="201.28"/></g><g class="cls-10"><line class="cls-9" x1="410.69" y1="627.06" x2="373.82" y2="590.19"/><line class="cls-9" x1="373.82" y1="663.93" x2="410.69" y2="627.06"/><line class="cls-9" x1="466.19" y1="663.93" x2="418.28" y2="663.93"/></g><g class="cls-10"><path class="cls-11" d="M2995.62,671.72c8.57,2.61,17.11-.45,23-6.38a24.76,24.76,0,0,0,0-35.4,23.56,23.56,0,0,0-22.92-6.36h0c-11.41,3.47-20.66,13.29-28.52,21.78-.7.76-1.39,1.51-2.06,2.29s-1.36,1.53-2.06,2.28h0c-7.86,8.5-17.11,18.32-28.52,21.79h0a23.27,23.27,0,0,1-22.92-6.35,24.77,24.77,0,0,1,0-35.41c5.84-5.92,14.38-9,23-6.38"/></g><path class="cls-12" d="M2934.45,623.59c11.41,3.47,20.66,13.29,28.52,21.78.7.76,1.39,1.51,2.06,2.29l2.06,2.28c7.86,8.5,17.11,18.32,28.52,21.79"/><g class="cls-10"><line class="cls-9" x1="2741.39" y1="294.36" x2="2845.67" y2="294.36"/><line class="cls-9" x1="2793.53" y1="242.22" x2="2793.53" y2="346.5"/></g><g class="cls-10"><line class="cls-9" x1="260.76" y1="155.78" x2="365.04" y2="155.78"/><line class="cls-9" x1="312.9" y1="103.64" x2="312.9" y2="207.92"/></g><g class="cls-10"><circle class="cls-13" cx="947" cy="968.03" r="10.34"/><path class="cls-13" d="M947,968c0-50.7,68.08-9.34,68.08-75.37"/><line class="cls-13" x1="947" y1="968.03" x2="947" y2="863.75"/><circle class="cls-13" cx="947" cy="863.75" r="10.34"/><circle class="cls-13" cx="1015.08" cy="892.66" r="10.34"/></g><g class="cls-10"><line class="cls-9" x1="72.59" y1="802.63" x2="109.45" y2="839.5"/><line class="cls-9" x1="109.45" y1="765.76" x2="72.59" y2="802.63"/><line class="cls-9" x1="201.43" y1="802.63" x2="164.56" y2="765.76"/><line class="cls-9" x1="164.56" y1="839.5" x2="201.43" y2="802.63"/></g><g class="cls-10"><circle class="cls-13" cx="2937.22" cy="940.26" r="10.34"/><path class="cls-13" d="M2937.22,940.26c0-50.69,68.08-9.33,68.08-75.36"/><line class="cls-13" x1="2937.22" y1="940.26" x2="2937.22" y2="835.99"/><circle class="cls-13" cx="2937.22" cy="835.99" r="10.34"/><circle class="cls-13" cx="3005.3" cy="864.9" r="10.34"/></g><g class="cls-10"><circle class="cls-13" cx="3396.81" cy="231.56" r="10.34"/><path class="cls-13" d="M3396.81,231.56c0-50.7,68.08-9.34,68.08-75.37"/><line class="cls-13" x1="3396.81" y1="231.56" x2="3396.81" y2="127.28"/><circle class="cls-13" cx="3396.81" cy="127.28" r="10.34"/><circle class="cls-13" cx="3464.89" cy="156.19" r="10.34"/></g><g class="cls-10"><line class="cls-9" x1="2614.59" y1="899.66" x2="2690.83" y2="970.81"/><line class="cls-9" x1="2688.29" y1="897.12" x2="2617.14" y2="973.36"/></g><g class="cls-10"><line class="cls-9" x1="3596.23" y1="586.51" x2="3559.36" y2="549.64"/><line class="cls-9" x1="3559.36" y1="623.38" x2="3596.23" y2="586.51"/><line class="cls-9" x1="3651.73" y1="623.38" x2="3603.82" y2="623.38"/></g><g class="cls-10"><line class="cls-9" x1="2537.75" y1="767.62" x2="2500.88" y2="730.75"/><line class="cls-9" x1="2500.88" y1="804.48" x2="2537.75" y2="767.62"/><line class="cls-9" x1="2593.25" y1="804.48" x2="2545.34" y2="804.48"/></g><g class="cls-10"><line class="cls-9" x1="3533.39" y1="880.26" x2="3570.26" y2="917.12"/><line class="cls-9" x1="3570.26" y1="843.39" x2="3533.39" y2="880.26"/><line class="cls-9" x1="3662.24" y1="880.26" x2="3625.37" y2="843.39"/><line class="cls-9" x1="3625.37" y1="917.12" x2="3662.24" y2="880.26"/></g><g class="cls-10"><path class="cls-11" d="M595.53,417.05c8.58,2.6,17.12-.46,23-6.38a24.79,24.79,0,0,0,0-35.41,23.58,23.58,0,0,0-22.93-6.35h0c-11.41,3.47-20.67,13.29-28.53,21.79-.69.75-1.39,1.51-2.06,2.28s-1.36,1.53-2.06,2.29h0c-7.85,8.49-17.11,18.31-28.52,21.78h0a23.26,23.26,0,0,1-22.92-6.36,24.75,24.75,0,0,1,0-35.4c5.83-5.92,14.37-9,22.94-6.38"/></g><path class="cls-12" d="M534.36,368.91c11.41,3.47,20.67,13.29,28.52,21.79.7.75,1.39,1.51,2.06,2.28l2.06,2.29c7.86,8.49,17.12,18.31,28.53,21.78"/><g class="cls-10"><line class="cls-9" x1="865.83" y1="236.74" x2="942.07" y2="307.89"/><line class="cls-9" x1="939.52" y1="234.2" x2="868.37" y2="310.44"/></g><g class="cls-10"><line class="cls-9" x1="1752.77" y1="127.28" x2="1789.64" y2="164.15"/><line class="cls-9" x1="1789.64" y1="90.41" x2="1752.77" y2="127.28"/><line class="cls-9" x1="1881.62" y1="127.28" x2="1844.75" y2="90.41"/><line class="cls-9" x1="1844.75" y1="164.15" x2="1881.62" y2="127.28"/></g><line class="cls-9" x1="3011.26" y1="55.28" x2="2986.08" y2="80.46"/><line class="cls-9" x1="3036.44" y1="80.46" x2="3011.26" y2="55.28"/><line class="cls-9" x1="2281.47" y1="876.97" x2="2352.69" y2="876.97"/><line class="cls-9" x1="2317.08" y1="841.36" x2="2317.08" y2="912.59"/><line class="cls-9" x1="1182.11" y1="764.82" x2="1207.29" y2="790"/><line class="cls-9" x1="1207.29" y1="739.64" x2="1182.11" y2="764.82"/><line class="cls-9" x1="1270.11" y1="764.82" x2="1244.93" y2="739.64"/><line class="cls-9" x1="1244.93" y1="790" x2="1270.11" y2="764.82"/><g class="cls-10"><circle class="cls-13" cx="1887.23" cy="915.03" r="10.34"/><path class="cls-13" d="M1887.23,915c0-50.7,68.08-9.34,68.08-75.37"/><line class="cls-13" x1="1887.23" y1="915.03" x2="1887.23" y2="810.75"/><circle class="cls-13" cx="1887.23" cy="810.75" r="10.34"/><circle class="cls-13" cx="1955.31" cy="839.66" r="10.34"/></g><g class="cls-10"><line class="cls-9" x1="1581.26" y1="767.82" x2="1657.49" y2="838.97"/><line class="cls-9" x1="1654.95" y1="765.28" x2="1583.8" y2="841.51"/></g><g class="cls-10"><line class="cls-9" x1="1436.13" y1="912.42" x2="1399.27" y2="875.55"/><line class="cls-9" x1="1399.27" y1="949.29" x2="1436.13" y2="912.42"/><line class="cls-9" x1="1491.64" y1="949.29" x2="1443.73" y2="949.29"/></g></g></g></g></g></svg>